<svg xmlns="http://www.w3.org/2000/svg" viewBox="0 0 32 32" width="32" height="32">
  <rect width="32" height="32" rx="8" fill="#ea580c"/>
  <path d="M7 9a2 2 0 0 1 2-2h8a2 2 0 0 1 2 2v14a1 1 0 0 1-1 1H8a1 1 0 0 1-1-1V9z" fill="#ffffff"/>
  <rect x="9.5" y="10" width="7" height="4.5" rx="1" fill="#18181b"/>
  <text x="13" y="13.8" font-family="system-ui, sans-serif" font-size="3.5" font-weight="bold" fill="#ea580c" text-anchor="middle">€</text>
  <path d="M19 11c3 0 4 3.5 4 6.5s-1 3.5-2 3.5" fill="none" stroke="#18181b" stroke-width="1.8" stroke-linecap="round"/>
  <path d="M23 13.5l1.5-2.5h1" fill="none" stroke="#18181b" stroke-width="1.2" stroke-linecap="round"/>
</svg>
